<?xml version="1.0" encoding="UTF-8"?> <svg xmlns="http://www.w3.org/2000/svg" xmlns:xlink="http://www.w3.org/1999/xlink" width="390px" height="66px" viewBox="0 0 390 66"><!-- Generator: Sketch 51.3 (57544) - http://www.bohemiancoding.com/sketch --><title>Artboard 11</title><desc>Created with Sketch.</desc><defs></defs><g id="Artboard-11" stroke="none" stroke-width="1" fill="none" fill-rule="evenodd"><g id="Logo" transform="translate(3.000000, 2.000000)"><path d="M78.085,30.605 C78.085,22.226 83.867,18.061 89.698,18.061 C95.578,18.061 101.36,22.226 101.36,30.605 C101.36,38.984 95.578,43.149 89.698,43.149 C83.867,43.149 78.085,38.984 78.085,30.605 Z M72.058,30.605 C72.058,42.022 80.584,48.735 89.698,48.735 C98.812,48.735 107.387,42.022 107.387,30.605 C107.387,19.237 98.812,12.524 89.698,12.524 C80.584,12.524 72.058,19.237 72.058,30.605 Z M117.645,57.31 L117.645,45.305 C118.87,47.118 121.467,48.588 124.897,48.588 C131.757,48.588 136.118,43.198 136.118,36.044 C136.118,28.988 132.149,23.598 125.093,23.598 C121.418,23.598 118.674,25.313 117.498,27.371 L117.498,24.137 L112.01,24.137 L112.01,57.31 L117.645,57.31 Z M130.434,36.044 C130.434,40.601 127.788,43.541 124.015,43.541 C120.291,43.541 117.596,40.601 117.596,36.044 C117.596,31.585 120.291,28.645 124.015,28.645 C127.837,28.645 130.434,31.585 130.434,36.044 Z M147.552,16.836 L142.407,16.836 L142.407,20.413 C142.407,22.52 141.28,24.137 138.732,24.137 L137.507,24.137 L137.507,29.184 L141.917,29.184 L141.917,41.189 C141.917,45.648 144.661,48.294 149.071,48.294 C151.129,48.294 152.207,47.902 152.55,47.755 L152.55,43.051 L152.281024,43.097569 C151.883136,43.1600178 151.193077,43.247 150.59,43.247 C148.483,43.247 147.552,42.365 147.552,40.258 L147.552,29.184 L152.501,29.184 L152.501,24.137 L147.552,24.137 L147.552,16.836 Z M162.857,48 L162.857,24.137 L157.222,24.137 L157.222,48 L162.857,48 Z M156.34,15.758 C156.34,17.816 158.006,19.433 160.015,19.433 C162.073,19.433 163.739,17.816 163.739,15.758 C163.739,13.7 162.073,12.034 160.015,12.034 C158.006,12.034 156.34,13.7 156.34,15.758 Z M174.732,48 L174.732,33.839 C174.732,30.801 176.643,28.547 179.681,28.547 C182.915,28.547 184.287,30.703 184.287,33.447 L184.287,48 L189.873,48 L189.873,33.839 C189.873,30.899 191.833,28.547 194.822,28.547 C198.007,28.547 199.428,30.654 199.428,33.447 L199.428,48 L204.916,48 L204.916,32.516 C204.916,26.195 200.8,23.451 196.488,23.451 C193.401,23.451 190.608,24.529 188.746,27.665 C187.472,24.872 184.728,23.451 181.592,23.451 C178.897,23.451 175.908,24.725 174.536,27.175 L174.536,24.137 L169.097,24.137 L169.097,48 L174.732,48 Z M216.399,48 L216.399,24.137 L210.764,24.137 L210.764,48 L216.399,48 Z M209.882,15.758 C209.882,17.816 211.548,19.433 213.557,19.433 C215.615,19.433 217.281,17.816 217.281,15.758 C217.281,13.7 215.615,12.034 213.557,12.034 C211.548,12.034 209.882,13.7 209.882,15.758 Z M240.328,48 L240.328,43.002 L227.833,43.002 L240.083,28.939 L240.083,24.137 L221.071,24.137 L221.071,29.135 L232.929,29.135 L220.826,43.051 L220.826,48 L240.328,48 Z M248.626,33.447 C248.822,30.899 250.88,28.155 254.457,28.155 C258.377,28.155 260.239,30.654 260.337,33.447 L248.626,33.447 Z M260.974,39.67 C260.19,42.022 258.426,43.835 254.996,43.835 C251.468,43.835 248.626,41.238 248.479,37.612 L265.923,37.612 C265.972,37.514 266.07,36.73 266.07,35.799 C266.07,28.253 261.758,23.402 254.408,23.402 C248.381,23.402 242.795,28.4 242.795,35.946 C242.795,44.031 248.528,48.735 254.996,48.735 C260.729,48.735 264.502,45.354 265.776,41.189 L260.974,39.67 Z M276.769,29.233 L276.769,18.453 L282.894,18.453 C286.618,18.453 288.872,20.56 288.872,23.892 C288.872,27.175 286.618,29.233 282.894,29.233 L276.769,29.233 Z M283.776,34.427 C290.44,34.427 294.85,29.968 294.85,23.843 C294.85,17.767 290.44,13.259 283.776,13.259 L270.889,13.259 L270.889,48 L276.769,48 L276.769,34.427 L283.776,34.427 Z M312.115,29.772 L312.115,23.99 L311.9288,23.955896 C311.63088,23.90572 311.1448,23.843 310.596,23.843 C307.46,23.843 304.814,25.362 303.687,27.959 L303.687,24.137 L298.15,24.137 L298.15,48 L303.834,48 L303.834,36.632 C303.834,32.173 305.843,29.625 310.253,29.625 C310.841,29.625 311.478,29.674 312.115,29.772 Z M319.482,33.447 C319.678,30.899 321.736,28.155 325.313,28.155 C329.233,28.155 331.095,30.654 331.193,33.447 L319.482,33.447 Z M331.83,39.67 C331.046,42.022 329.282,43.835 325.852,43.835 C322.324,43.835 319.482,41.238 319.335,37.612 L336.779,37.612 C336.828,37.514 336.926,36.73 336.926,35.799 C336.926,28.253 332.614,23.402 325.264,23.402 C319.237,23.402 313.651,28.4 313.651,35.946 C313.651,44.031 319.384,48.735 325.852,48.735 C331.585,48.735 335.358,45.354 336.632,41.189 L331.83,39.67 Z M339.148,41.532 C339.442,44.227 342.088,48.735 348.997,48.735 C355.073,48.735 358.013,44.717 358.013,41.091 C358.013,37.563 355.661,34.819 351.153,33.839 L347.527,33.104 C346.057,32.81 345.126,31.879 345.126,30.605 C345.126,29.135 346.547,27.861 348.556,27.861 C351.741,27.861 352.77,30.066 352.966,31.438 L357.768,30.066 C357.376,27.714 355.22,23.402 348.556,23.402 C343.607,23.402 339.785,26.93 339.785,31.095 C339.785,34.378 341.99,37.122 346.204,38.053 L349.732,38.837 C351.643,39.229 352.525,40.209 352.525,41.483 C352.525,42.953 351.3,44.227 348.948,44.227 C345.91,44.227 344.293,42.316 344.097,40.16 L339.148,41.532 Z M360.431,41.532 L365.38,40.16 C365.576,42.316 367.193,44.227 370.231,44.227 C372.583,44.227 373.808,42.953 373.808,41.483 C373.808,40.2620833 372.997969,39.3111771 371.248526,38.8890412 L367.487,38.053 C363.273,37.122 361.068,34.378 361.068,31.095 C361.068,26.93 364.89,23.402 369.839,23.402 C376.503,23.402 378.659,27.714 379.051,30.066 L374.249,31.438 C374.053,30.066 373.024,27.861 369.839,27.861 C367.83,27.861 366.409,29.135 366.409,30.605 C366.409,31.879 367.34,32.81 368.81,33.104 L372.436,33.839 C376.944,34.819 379.296,37.563 379.296,41.091 C379.296,44.717 376.356,48.735 370.28,48.735 C363.371,48.735 360.725,44.227 360.431,41.532 Z" id="OptimizePress" fill="#161616" fill-rule="nonzero"></path><path d="M41.8352512,33.2815434 C41.5854979,36.1151026 40.3532332,38.7722601 38.3516119,40.7933852 L38.3552263,40.7969394 L29.8414241,49.3962212 L29.8373278,38.7828983 L30.4736959,38.1400846 L30.4676719,38.1340607 C31.1423522,37.4559468 31.501258,36.4585043 31.3725266,35.2907653 C31.2446988,34.1324237 30.6665219,33.0317913 29.8344966,32.1845254 L29.8344966,32.155731 L29.8061841,32.155731 C28.9669903,31.3131638 27.875213,30.7275172 26.7265699,30.5982437 C25.5703366,30.4680665 24.5828939,30.8304662 23.9114063,31.5121945 L23.9051414,31.5051465 L23.2640144,32.1527793 L12.7576163,32.1485625 L21.1048569,23.7173484 C23.110159,21.5990973 25.8193101,20.28511 28.7242861,20.0217873 C51.5242018,-2.45349883 61.580552,0.0863109085 61.580552,0.0863109085 C61.580552,0.0863109085 64.0968082,10.2446463 41.8352512,33.2815434 Z M31.860224,26.1251136 C33.4132301,27.1912748 34.7500472,28.5421754 35.7998748,30.1062692 C51.7545569,13.9565322 52.6548334,9.10082227 52.6548334,9.10082227 C52.6548334,9.10082227 47.8372549,10.0213391 31.860224,26.1248726 L31.860224,26.1251136 Z M25.1857086,32.8658922 C25.2085393,32.8409531 25.2320929,32.8170381 25.2567308,32.7941472 L25.3497403,32.7001739 L25.3567883,32.7072821 C25.6918995,32.4552408 26.1656817,32.3587375 26.7253651,32.4717464 C28.0084624,32.7307754 29.2563197,33.9913432 29.5127584,35.2872715 C29.624683,35.8526174 29.5290833,36.3310982 29.279572,36.6696431 L29.280054,36.6700648 L29.1595753,36.8137355 L29.1475275,36.8204823 C28.9826224,36.9799991 28.7792506,37.0941363 28.5571822,37.1517985 L23.2518461,40.1273192 L24.5656052,41.4543309 L13.4057913,47.418143 L19.3126772,41.4516804 L17.9989784,40.1247289 L25.1857086,32.8658922 Z M12.648041,14.8846995 C3.21570984,24.4119076 3.21570984,39.8587121 12.648041,49.3860407 C17.1551415,53.9577351 23.3069789,56.5315865 29.7268188,56.5315865 C36.1466587,56.5315865 42.298496,53.9577351 46.8055965,49.3860407 C53.6121565,42.5109284 55.5048756,32.5539731 52.4874886,23.9626429 C53.9555206,22.0823331 55.2187389,20.3281042 56.308468,18.6952575 C61.8842184,29.9419364 60.035474,43.9849241 50.747175,53.3671964 C45.199799,58.9937005 37.6282939,62.1613749 29.7269694,62.1613749 C21.8256449,62.1613749 14.2541398,58.9937005 8.70676379,53.3671964 C-2.9022546,41.6410728 -2.9022546,22.6296674 8.70676379,10.9037848 C17.7638712,1.71835871 31.7370207,-0.520757608 43.2107555,5.37471982 C41.5977276,6.47077405 39.8653655,7.74091987 38.0078864,9.21768653 C29.1750195,5.96562903 19.2563969,8.1820843 12.648041,14.8846995 L12.648041,14.8846995 Z" id="Logomark.svg" fill="#0074FF"></path><text id="®" font-family="Graphik-Medium, Graphik" font-size="21" font-weight="400" letter-spacing="-0.6471431" fill="#161616"><tspan x="376" y="31">®</tspan></text></g></g></svg> 